<svg xmlns="http://www.w3.org/2000/svg" width="22" height="22" viewBox="0 0 22 22">
  <g id="ic_date" transform="translate(3971 6953)">
    <path id="Path_3501" data-name="Path 3501" d="M0,223.289a.638.638,0,0,0,.645.645H21.355a.638.638,0,0,0,.645-.645V211H0Zm18.734-1.332H16.156a.645.645,0,0,1,0-1.289h2.578a.645.645,0,0,1,0,1.289Zm.645-3.223a.638.638,0,0,1-.645.645H16.156a.645.645,0,0,1,0-1.289h2.578A.638.638,0,0,1,19.379,218.734Zm-16.113-5.8H5.844a.645.645,0,0,1,0,1.289H3.266a.645.645,0,0,1,0-1.289Zm0,2.578H5.844a.645.645,0,0,1,0,1.289H3.266a.645.645,0,0,1,0-1.289Zm0,0" transform="translate(-3971 -7154.934)" fill="#aaa"/>
    <path id="Path_3502" data-name="Path 3502" d="M20.066,2.578H18.051C17.884,1.07,17.123,0,16.156,0s-1.727,1.07-1.895,2.578h1.3c.116-.838.464-1.289.593-1.289s.477.451.593,1.289H15.563a3.355,3.355,0,0,0-.052.645c0,1.25.49,1.977.645,1.977a.645.645,0,0,1,0,1.289c-1.1,0-1.934-1.422-1.934-3.266a5.233,5.233,0,0,1,.039-.645H12.895C12.727,1.07,11.967,0,11,0S9.273,1.07,9.105,2.578h1.3c.116-.838.464-1.289.593-1.289s.477.451.593,1.289H10.407a3.355,3.355,0,0,0-.052.645c0,1.25.49,1.977.645,1.977a.645.645,0,0,1,0,1.289c-1.1,0-1.934-1.422-1.934-3.266a5.233,5.233,0,0,1,.039-.645H7.739C7.571,1.07,6.811,0,5.844,0S4.116,1.07,3.949,2.578h1.3c.116-.838.464-1.289.593-1.289s.477.451.593,1.289H5.251a3.355,3.355,0,0,0-.052.645c0,1.25.49,1.977.645,1.977a.645.645,0,0,1,0,1.289c-1.1,0-1.934-1.422-1.934-3.266a5.233,5.233,0,0,1,.039-.645H1.934A1.931,1.931,0,0,0,0,4.512V7.777H22V4.512A1.931,1.931,0,0,0,20.066,2.578Zm0,0" transform="translate(-3971 -6953)" fill="#aaa"/>
  </g>
</svg>
