<svg xmlns="http://www.w3.org/2000/svg" width="21.022" height="24" viewBox="0 0 21.022 24">
  <g id="ic_diadiem" transform="translate(4003 6954)">
    <path id="Path_3480" data-name="Path 3480" d="M184.838,1.593a2.1,2.1,0,0,0-4.076,0,11.2,11.2,0,0,1,4.076,0Zm0,0" transform="translate(-4175.289 -6954)" fill="#aaa"/>
    <path id="Path_3481" data-name="Path 3481" d="M101.895,157.328a6.328,6.328,0,1,0-6.328,6.328A6.335,6.335,0,0,0,101.895,157.328Zm-7.951,1.309-1.989-3.977a.7.7,0,0,1,.944-.943l3.977,1.989a.7.7,0,0,1,.314.314L99.178,160a.7.7,0,0,1-.943.943l-3.977-1.989A.705.705,0,0,1,93.943,158.637Zm0,0" transform="translate(-4088.055 -7097.922)" fill="#aaa"/>
    <path id="Path_3482" data-name="Path 3482" d="M194.152,255.91l.94,1.881,1.881.94-.94-1.881Zm0,0" transform="translate(-4188.051 -7197.915)" fill="#aaa"/>
    <path id="Path_3483" data-name="Path 3483" d="M0,144.316H2.813a7.7,7.7,0,0,1,1.759-4.243l-1.988-1.988A10.487,10.487,0,0,0,0,144.316Zm0,0" transform="translate(-4003 -7085.613)" fill="#aaa"/>
    <path id="Path_3484" data-name="Path 3484" d="M355.528,301h-2.812a7.7,7.7,0,0,1-1.759,4.243l1.988,1.988A10.488,10.488,0,0,0,355.528,301Zm0,0" transform="translate(-4337.506 -7240.891)" fill="#aaa"/>
    <path id="Path_3485" data-name="Path 3485" d="M352.945,138.086l-1.988,1.988a7.7,7.7,0,0,1,1.759,4.243h2.813A10.488,10.488,0,0,0,352.945,138.086Zm0,0" transform="translate(-4337.506 -7085.613)" fill="#aaa"/>
    <path id="Path_3486" data-name="Path 3486" d="M239.238,63.621a7.7,7.7,0,0,1,4.243,1.759l1.988-1.988a10.537,10.537,0,0,0-6.231-2.63Zm0,0" transform="translate(-4231.024 -7011.914)" fill="#aaa"/>
    <path id="Path_3487" data-name="Path 3487" d="M82.555,414.477a7.7,7.7,0,0,1-4.242-1.759l-1.988,1.988a10.576,10.576,0,0,0,6.23,2.666Zm0,0" transform="translate(-4075.747 -7347.373)" fill="#aaa"/>
    <path id="Path_3488" data-name="Path 3488" d="M243.481,412.719a7.7,7.7,0,0,1-4.243,1.759v2.9a10.576,10.576,0,0,0,6.231-2.666Zm0,0" transform="translate(-4231.024 -7347.373)" fill="#aaa"/>
    <path id="Path_3489" data-name="Path 3489" d="M2.583,307.23l1.988-1.988A7.7,7.7,0,0,1,2.813,301H0A10.487,10.487,0,0,0,2.583,307.23Zm0,0" transform="translate(-4003 -7240.891)" fill="#aaa"/>
    <path id="Path_3490" data-name="Path 3490" d="M78.312,65.38a7.7,7.7,0,0,1,4.242-1.759V60.762a10.537,10.537,0,0,0-6.23,2.63Zm0,0" transform="translate(-4075.747 -7011.914)" fill="#aaa"/>
  </g>
</svg>
