<svg xmlns="http://www.w3.org/2000/svg" width="24" height="24" viewBox="0 0 24 24">
  <g id="ic_diachi" transform="translate(3936 6954)">
    <path id="Path_3491" data-name="Path 3491" d="M16.172,9.938h3.739a2.1,2.1,0,1,0,2.683-2.683V.7a.7.7,0,0,0-.7-.7H16.219a.7.7,0,0,0-.7.7V5.016a.7.7,0,0,0,.7.7h4.969V7.254a2.108,2.108,0,0,0-1.277,1.277H16.172a3.516,3.516,0,0,0,0,7.031h4.313a2.109,2.109,0,0,1,0,4.219H12.268a6.254,6.254,0,0,0,.389-2.109,6.338,6.338,0,1,0-1.071,3.516h8.9a3.516,3.516,0,0,0,0-7.031H16.172a2.109,2.109,0,0,1,0-4.219ZM6.328,21.188a3.516,3.516,0,1,1,3.516-3.516A3.52,3.52,0,0,1,6.328,21.188Zm0,0" transform="translate(-3936 -6954)" fill="#aaa"/>
    <path id="Path_3492" data-name="Path 3492" d="M92.109,332a2.109,2.109,0,1,0,2.109,2.109A2.112,2.112,0,0,0,92.109,332Zm0,2.813a.7.7,0,1,1,.7-.7A.7.7,0,0,1,92.109,334.813Zm0,0" transform="translate(-4021.781 -7270.438)" fill="#aaa"/>
  </g>
</svg>
