<svg xmlns="http://www.w3.org/2000/svg" width="24" height="24" viewBox="0 0 24 24">
  <g id="ic_giatien" transform="translate(4106 6954)">
    <path id="Path_3474" data-name="Path 3474" d="M9.188,168.875a16.666,16.666,0,0,0,4.967-.6,2.41,2.41,0,0,1,.7-2.208,2.448,2.448,0,0,1,0-3.516,2.448,2.448,0,0,1,0-3.516,2.444,2.444,0,0,1,.268-3.737,9.972,9.972,0,0,0-1.334-1.028,1.378,1.378,0,0,0,.321-.86A1.406,1.406,0,0,0,12.7,152H5.672a1.406,1.406,0,0,0-1.406,1.406,1.378,1.378,0,0,0,.32.858A10.064,10.064,0,0,0,0,162.547C0,168.219,5.263,168.875,9.188,168.875ZM9.18,162.05a2.1,2.1,0,0,1-.7-4.091v-1.036a.7.7,0,0,1,1.406,0v1.041a2.106,2.106,0,0,1,1.4,1.977.7.7,0,0,1-1.406,0,.7.7,0,1,0-.7.7,2.1,2.1,0,0,1,.711,4.087v.629a.7.7,0,0,1-1.406,0v-.624a2.105,2.105,0,0,1-1.414-1.982.7.7,0,1,1,1.406,0,.7.7,0,1,0,.7-.7Zm0,0" transform="translate(-4106 -7098.875)" fill="#aaa"/>
    <path id="Path_3475" data-name="Path 3475" d="M338.43,467h-6.375a1.055,1.055,0,0,0,0,2.109h6.375a1.055,1.055,0,0,0,0-2.109Zm0,0" transform="translate(-4421.484 -7399.109)" fill="#aaa"/>
    <path id="Path_3476" data-name="Path 3476" d="M338.43,392h-6.375a1.055,1.055,0,0,0,0,2.109h6.375a1.055,1.055,0,0,0,0-2.109Zm0,0" transform="translate(-4421.484 -7327.625)" fill="#aaa"/>
    <path id="Path_3477" data-name="Path 3477" d="M338.43,317h-6.375a1.055,1.055,0,0,0,0,2.109h6.375a1.055,1.055,0,0,0,0-2.109Zm0,0" transform="translate(-4421.484 -7256.141)" fill="#aaa"/>
    <path id="Path_3478" data-name="Path 3478" d="M338.43,242h-6.375a1.055,1.055,0,0,0,0,2.109h6.375a1.055,1.055,0,0,0,0-2.109Zm0,0" transform="translate(-4421.484 -7184.656)" fill="#aaa"/>
    <path id="Path_3479" data-name="Path 3479" d="M97.9,1.406a2.1,2.1,0,0,0-3.969,0H91.7a.7.7,0,0,0-.667.926l1.1,3.387H99.71l1.1-3.387a.7.7,0,0,0-.667-.926Zm0,0" transform="translate(-4192.734 -6954)" fill="#aaa"/>
  </g>
</svg>
