<svg xmlns="http://www.w3.org/2000/svg" width="22" height="22" viewBox="0 0 22 22">
  <g id="ic_hinhthuc" transform="translate(4039 6952)">
    <path id="Path_3497" data-name="Path 3497" d="M99.921,0H83.484L86.6,4.2a.644.644,0,0,1-.417,1.023,1.287,1.287,0,1,0,1.368,1.82.644.644,0,0,1,.518-.367.656.656,0,0,1,.581.256L91.026,10.1l2.487-1.865a2.576,2.576,0,1,1,4.1-3.075L101.9,1.977A2.01,2.01,0,0,0,99.921,0Zm0,0" transform="translate(-4118.897 -6952)" fill="#aaa"/>
    <path id="Path_3498" data-name="Path 3498" d="M282.272,86.684a.644.644,0,0,1-.393-.5,1.288,1.288,0,1,0-1.819,1.37.645.645,0,0,1,.107,1.1L277,91.03l1.865,2.487a2.576,2.576,0,1,1,3.075,4.1l3.181,4.285a2.01,2.01,0,0,0,1.977-1.977V83.488L282.9,86.6A.646.646,0,0,1,282.272,86.684Zm0,0" transform="translate(-4304.098 -7031.901)" fill="#aaa"/>
    <path id="Path_3499" data-name="Path 3499" d="M1.977,287.1H18.413L15.3,282.9a.644.644,0,0,1,.417-1.023,1.288,1.288,0,1,0-1.37-1.819.644.644,0,0,1-.52.365.655.655,0,0,1-.58-.258L10.871,277l-2.487,1.865a2.575,2.575,0,1,1-4.1,3.075L0,285.121A2.01,2.01,0,0,0,1.977,287.1Zm0,0" transform="translate(-4039 -7217.098)" fill="#aaa"/>
    <path id="Path_3500" data-name="Path 3500" d="M4.825,15.217a.644.644,0,0,1,.393.5,1.287,1.287,0,1,0,1.82-1.368.644.644,0,0,1-.111-1.1L10.1,10.871,8.232,8.383a2.575,2.575,0,1,1-3.075-4.1L1.976,0A2.01,2.01,0,0,0,0,1.977V18.412L4.2,15.3A.642.642,0,0,1,4.825,15.217Zm0,0" transform="translate(-4039 -6952)" fill="#aaa"/>
  </g>
</svg>
