<svg xmlns="http://www.w3.org/2000/svg" width="18.282" height="24" viewBox="0 0 18.282 24">
  <g id="ic_ten" transform="translate(4071 6954)">
    <path id="Path_3493" data-name="Path 3493" d="M109.219,0a2.813,2.813,0,0,0-2.812,2.812h-.7a.7.7,0,0,0-.7.7V4.922a.7.7,0,0,0,.7.7h7.031a.7.7,0,0,0,.7-.7V3.516a.7.7,0,0,0-.7-.7h-.7A2.813,2.813,0,0,0,109.219,0Zm0,3.516a.7.7,0,1,1,.7-.7A.7.7,0,0,1,109.219,3.516Zm0,0" transform="translate(-4171.078 -6954)" fill="#aaa"/>
    <path id="Path_3494" data-name="Path 3494" d="M120.7,406a.7.7,0,1,0,.7.7A.7.7,0,0,0,120.7,406Zm0,0" transform="translate(-4185.375 -7340.969)" fill="#aaa"/>
    <path id="Path_3495" data-name="Path 3495" d="M240.7,406a.7.7,0,1,0,.7.7A.7.7,0,0,0,240.7,406Zm0,0" transform="translate(-4299.75 -7340.969)" fill="#aaa"/>
    <path id="Subtraction_1" data-name="Subtraction 1" d="M17.578,19.781H.7a.7.7,0,0,1-.7-.7V.7A.7.7,0,0,1,.7,0H3.515V.7a2.112,2.112,0,0,0,2.11,2.11h7.032A2.112,2.112,0,0,0,14.765.7V0h2.813a.7.7,0,0,1,.7.7V19.078A.7.7,0,0,1,17.578,19.781ZM5.648,10.8a.891.891,0,1,0,0,1.781h6.984a.891.891,0,1,0,0-1.781Zm0-3.562a.891.891,0,1,0,0,1.781h6.984a.891.891,0,1,0,0-1.781Z" transform="translate(-4071 -6949.781)" fill="#aaa"/>
  </g>
</svg>
